<?xml version="1.0" encoding="utf-8"?>
<!-- Generator: Adobe Illustrator 19.1.0, SVG Export Plug-In . SVG Version: 6.00 Build 0)  -->
<svg version="1.1" id="Layer_1" xmlns="http://www.w3.org/2000/svg" xmlns:xlink="http://www.w3.org/1999/xlink" x="0px" y="0px"
	 viewBox="0 0 470 60" style="enable-background:new 0 0 470 60;" xml:space="preserve">
<style type="text/css">
	.st0{fill:none;stroke:#9DACD6;stroke-width:9;stroke-miterlimit:10;}
	.st1{fill:#FFFFFF;}
	.st2{fill:#1961AB;}
	.st3{opacity:0;fill:#1961AB;}
	.st4{fill:#9DACD6;}
</style>
<g>
	<line class="st0" x1="-0.1" y1="30.2" x2="470.1" y2="30.2"/>
	<rect x="186.2" y="20.9" class="st1" width="16.1" height="8.8"/>
	<rect x="350.3" y="20.9" class="st1" width="33" height="17.9"/>
	<g>
		<path class="st2" d="M62,40.5c0,2.8-0.7,5.3-2.2,7.3c-1.4,2.1-3.5,3.6-6,4.7c-2.6,1.1-5.6,1.6-8.9,1.6c-0.9,0-2.1-0.1-3.4-0.2
			c-1.4-0.1-3.2-0.5-5.4-1c-2.2-0.5-4.6-1.3-7-2.4V39.6c2.3,1.4,4.5,2.6,6.7,3.5c2.2,0.9,4.6,1.4,7.1,1.4c2.3,0,3.8-0.4,4.5-1.2
			s1-1.5,1-2.2c0-1.2-0.6-2.2-1.8-3.1s-2.9-1.7-5.1-2.6c-2.5-1-4.7-2.2-6.5-3.4s-3.4-2.8-4.6-4.6c-1.2-1.8-1.8-4-1.8-6.6
			c0-2.4,0.6-4.6,1.8-6.6c1.2-2,3-3.5,5.5-4.7c2.5-1.2,5.5-1.8,9-1.8c2.5,0,4.9,0.2,7,0.7c2.1,0.5,3.9,1,5.3,1.6
			c1.4,0.6,2.3,1.1,2.9,1.4v10.6c-1.8-1.3-3.9-2.5-6.2-3.6c-2.3-1-4.7-1.6-7.3-1.6c-1.7,0-2.9,0.3-3.7,1c-0.8,0.7-1.1,1.5-1.1,2.4
			c0,0.9,0.4,1.7,1.1,2.3c0.8,0.7,2.1,1.4,4.1,2.4c3.5,1.6,6.3,3.1,8.3,4.4c2.1,1.3,3.7,2.8,4.9,4.5C61.4,35.8,62,38,62,40.5z"/>
		<path class="st2" d="M114.6,19.5H98v34.2H84.4V19.5H67.8v-11h46.7V19.5z"/>
		<path class="st3" d="M167,31c0,4.2-1,8.1-2.9,11.6c-1.9,3.5-4.8,6.4-8.7,8.4c-3.8,2.1-8.5,3.1-14.1,3.1c-5.6,0-10.3-1.1-14.2-3.3
			c-3.9-2.2-6.7-5-8.6-8.6c-1.9-3.5-2.8-7.3-2.8-11.4c0-4.1,0.9-7.9,2.8-11.4c1.9-3.5,4.7-6.4,8.6-8.5c3.9-2.2,8.6-3.2,14.2-3.2
			c4.2,0,7.9,0.6,11.2,1.9c3.3,1.2,6,2.9,8.1,5c2.1,2.1,3.7,4.6,4.8,7.4C166.5,25,167,27.9,167,31z M153.2,31c0-1.7-0.2-3.2-0.8-4.6
			c-0.5-1.4-1.3-2.6-2.3-3.7c-1-1-2.2-1.8-3.7-2.4c-1.5-0.6-3.1-0.9-5.1-0.9c-3.7,0-6.5,1.1-8.6,3.2c-2.1,2.1-3.1,4.9-3.1,8.4
			c0,3.5,1,6.3,3.1,8.4c2.1,2.1,5,3.2,8.6,3.2c2.5,0,4.6-0.5,6.4-1.5c1.8-1,3.1-2.4,4-4.1C152.7,35.3,153.2,33.3,153.2,31z"/>
		<path class="st2" d="M219.3,53.7h-14.6l-3.6-8c-1.3-2.9-2.5-5.1-3.5-6.4c-1-1.4-2.1-2.2-3-2.6c-1-0.4-2.3-0.6-3.8-0.6h-1.5v17.6
			h-13.6V8.5h23.2c3.7,0,6.8,0.8,9.2,2.3c2.4,1.5,4.1,3.4,5.2,5.5c1.1,2.2,1.6,4.2,1.6,6.2c0,2.3-0.4,4.2-1.3,5.8
			c-0.9,1.6-1.8,2.7-2.8,3.4c-1,0.7-2.1,1.4-3.3,2.1c1.5,0.8,2.7,1.9,3.6,3c0.9,1.2,2.2,3.5,3.9,7.1L219.3,53.7z M200.8,22.7
			c0-2.1-0.7-3.5-2.1-4.4c-1.4-0.8-3.6-1.2-6.7-1.2h-2.9V28h2.9c3.3,0,5.6-0.4,6.8-1.1C200.1,26.2,200.8,24.8,200.8,22.7z"/>
		<path class="st2" d="M267.6,8.5L249.9,33v20.7h-13.6V33.2l-18-24.7h14.1l10.4,14.2l10.4-14.2H267.6z"/>
		<path class="st2" d="M308,53.7h-34.3V8.5h13.6v34.4H308V53.7z"/>
		<path class="st2" d="M329.6,53.7H316V8.5h13.6V53.7z"/>
		<path class="st2" d="M390.1,53.7H378l-23.4-25.2v25.2H341V8.5h12.1l23.4,25v-25h13.6V53.7z"/>
		<path class="st2" d="M435.5,53.7h-34.1V8.5H435v9.1h-19.9v8.3h19v9.1h-19v9.7h20.4V53.7z"/>
	</g>
	<circle class="st4" cx="142.7" cy="31" r="24"/>
	<circle class="st1" cx="142.7" cy="31" r="10.9"/>
</g>
</svg>
